<svg xmlns="http://www.w3.org/2000/svg" viewBox="0 0 23.7 23.7"><path d="M7.9 11.8a3.9 3.9 0 1 1 3.9 3.9 3.9 3.9 0 0 1-3.9-3.9m-2.1 0a6.1 6.1 0 1 0 6.1-6.1 6.1 6.1 0 0 0-6.1 6.1m11-6.3a1.4 1.4 0 1 0 1.4-1.4 1.4 1.4 0 0 0-1.4 1.4M7 21.5a6.5 6.5 0 0 1-2.1-.5 3.7 3.7 0 0 1-1.4-.9 3.7 3.7 0 0 1-.9-1.4 6.5 6.5 0 0 1-.4-2.2c-.1-1.2-.1-1.6-.1-4.8s0-3.5.1-4.8a6.6 6.6 0 0 1 .4-2.2 3.7 3.7 0 0 1 .9-1.4 3.7 3.7 0 0 1 1.4-.9A6.5 6.5 0 0 1 7 2.2h9.6a6.6 6.6 0 0 1 2.2.4 3.7 3.7 0 0 1 1.4.9 3.7 3.7 0 0 1 .8 1.4 6.5 6.5 0 0 1 .5 2.1c.1 1.2.1 1.6.1 4.8s0 3.5-.1 4.8a6.6 6.6 0 0 1-.4 2.2 3.9 3.9 0 0 1-2.3 2.2 6.5 6.5 0 0 1-2.2.4H7M7 .1a8.7 8.7 0 0 0-2.9.5A5.8 5.8 0 0 0 2 2 5.8 5.8 0 0 0 .6 4.1 8.7 8.7 0 0 0 .1 7C0 8.2 0 8.6 0 11.8s0 3.6.1 4.9a8.7 8.7 0 0 0 .5 2.9A5.8 5.8 0 0 0 2 21.7 5.8 5.8 0 0 0 4.1 23a8.7 8.7 0 0 0 2.9.5h9.8a8.7 8.7 0 0 0 2.9-.5 6 6 0 0 0 3.3-3.4 8.7 8.7 0 0 0 .5-2.9c.1-1.3.1-1.7.1-4.9s0-3.6-.1-4.9a8.7 8.7 0 0 0-.5-2.8A5.8 5.8 0 0 0 21.7 2 5.8 5.8 0 0 0 19.6.6a8.7 8.7 0 0 0-2.9-.5H7" fill="#fff"/></svg>
